# xmcd
# 
# Track frame offsets:
#     150
#     19636
#     44325
#     63745
# 
# Disc length: 1177
# 
# Revision: 0
# Processed by: cddbd v1.5.2PL0 Copyright (c) Steve Scherf et al.
# Submitted via: fre:ac v1.0.17
# 
DISCID=2f049704
DTITLE=AZU - For You [通常盤]
DYEAR=2010
DGENRE=JPop
TTITLE0=For You
TTITLE1=いますぐに・・・ (Acoustic version)
TTITLE2=For You -Instrumental-
TTITLE3=いますぐに・・・ (Acoustic version) -Instrumental-
EXTD=
EXTT0=
EXTT1=
EXTT2=
EXTT3=
PLAYORDER=
